<svg xmlns="http://www.w3.org/2000/svg" xmlns:xlink="http://www.w3.org/1999/xlink" width="45" height="45" viewBox="0 0 45 45">
    <defs>
        <path id="a" d="M12.838 2.114c-5.915 0-10.726 4.81-10.726 10.725 0 5.914 4.81 10.723 10.726 10.723 5.915 0 10.725-4.81 10.725-10.723 0-5.915-4.81-10.725-10.725-10.725m0 23.563C5.759 25.677 0 19.917 0 12.839 0 5.76 5.759 0 12.838 0c7.078 0 12.837 5.759 12.837 12.84 0 7.078-5.759 12.837-12.838 12.837zm-1.107-10.14h2.204l.333-10.662h-2.893l.356 10.661zm-.222 4.762h2.67v-2.581h-2.67v2.581z"/>
    </defs>
    <g fill="none" fill-rule="evenodd">
        <circle cx="22.5" cy="22.5" r="22.5" fill="#99E5EA"/>
        <use fill="#1A1446" fill-rule="nonzero" transform="translate(10 10)" xlink:href="#a"/>
    </g>
</svg>
