<svg xmlns="http://www.w3.org/2000/svg" width="60" height="60" viewBox="0 0 60 60">
    <g fill="none" fill-rule="evenodd">
        <circle cx="30" cy="30" r="30" fill="#99E5EA"/>
        <path fill="#1A1446" fill-rule="nonzero" d="M33.944 30.5c.608.6.963 1.45.963 2.35 0 .9-.355 1.7-1.013 2.35-.659.6-1.47.95-2.38.95h-.305v2h-1.52v-2h-2.684v-1.5h2.685V31h-.152c-1.824-.05-3.343-1.5-3.343-3.35 0-.9.354-1.7 1.013-2.35.658-.6 1.469-.95 2.38-.95h.152v-1.5h1.52v1.5h2.887v1.5H31.26v3.65h.303c.912 0 1.723.35 2.381 1zm-1.063 3.6c.304-.35.506-.8.557-1.25 0-.5-.203-.95-.557-1.3-.355-.35-.811-.55-1.318-.55h-.303v3.65h.303c.507 0 .963-.2 1.318-.55zm-3.293-4.6l.203-.05V25.8h-.152c-.506 0-.962.2-1.317.55-.354.35-.557.8-.557 1.3 0 1.05.81 1.85 1.823 1.85zM49.645 42h-1.823V20.85H13.279v19.3h32.619V42h-33.53a.902.902 0 0 1-.912-.9V19.95c0-.5.405-.9.911-.9h36.367c.506 0 .911.4.911.9V42z"/>
    </g>
</svg>
