<svg xmlns="http://www.w3.org/2000/svg" xmlns:xlink="http://www.w3.org/1999/xlink" width="100" height="100" viewBox="0 0 100 100">
    <defs>
        <path id="a" d="M30 5.252c-13.65 0-24.75 11.1-24.75 24.75 0 13.646 11.1 24.746 24.75 24.746s24.75-11.1 24.75-24.746c0-13.65-11.1-24.75-24.75-24.75m-2.44 37.603h-5.075v4.879h15.026v-4.879H32.44V24.572a2.437 2.437 0 0 0-2.438-2.438h-6.975v4.88h4.534v15.841zM30 59.627C13.665 59.627.375 46.337.375 30 .375 13.663 13.665.373 30 .373S59.625 13.663 59.625 30c0 16.335-13.29 29.625-29.625 29.625zm2.353-44.486a2.962 2.962 0 0 0-2.966-2.963 2.965 2.965 0 1 0 2.966 2.963z"/>
    </defs>
    <g fill="none" fill-rule="evenodd">
        <circle cx="50" cy="50" r="50" fill="#99E5EA"/>
        <use fill="#1A1446" fill-rule="nonzero" transform="translate(20 20)" xlink:href="#a"/>
    </g>
</svg>
