<svg xmlns="http://www.w3.org/2000/svg" xmlns:xlink="http://www.w3.org/1999/xlink" width="100" height="100" viewBox="0 0 100 100">
    <defs>
        <path id="a" d="M30.002.216c16.417 0 29.779 13.361 29.779 29.782 0 16.422-13.362 29.787-29.78 29.787C13.582 59.785.22 46.42.22 29.999.22 13.576 13.581.215 30.002.215zm0 54.69c13.732 0 24.9-11.171 24.9-24.907 0-13.733-11.168-24.904-24.9-24.904-13.733 0-24.908 11.171-24.908 24.904 0 13.736 11.175 24.907 24.908 24.907zm-6.003-16.063l20.963-21.05 3.458 3.438-24.36 24.461-.133-.133-.012.012-12.307-12.004 3.405-3.49 8.986 8.766z"/>
    </defs>
    <g fill="none" fill-rule="evenodd">
        <circle cx="50" cy="50" r="50" fill="#99E5EA"/>
        <use fill="#1A1446" fill-rule="nonzero" transform="translate(20 20)" xlink:href="#a"/>
    </g>
</svg>
