<svg xmlns="http://www.w3.org/2000/svg" xmlns:xlink="http://www.w3.org/1999/xlink" width="100" height="100" viewBox="0 0 100 100">
    <defs>
        <path id="a" d="M29.998 5.105c-6.375 0-12.754 2.426-17.606 7.282-9.713 9.713-9.713 25.512 0 35.224 9.709 9.716 25.519 9.709 35.216 0 9.713-9.712 9.713-25.511 0-35.224-4.849-4.856-11.227-7.282-17.61-7.282M26.55 29.999L12.771 43.777l3.45 3.45L30 33.449l13.778 13.778 3.45-3.45-13.778-13.778 13.777-13.777-3.45-3.45L30 26.549 16.222 12.772l-3.45 3.45 13.777 13.777zM30 59.77c-7.625 0-15.248-2.903-21.057-8.708-11.614-11.614-11.614-30.51 0-42.124 11.614-11.61 30.499-11.602 42.116 0 11.614 11.614 11.614 30.51 0 42.124-5.809 5.805-13.432 8.708-21.06 8.708z"/>
    </defs>
    <g fill="none" fill-rule="evenodd">
        <circle cx="50" cy="50" r="50" fill="#99E5EA"/>
        <use fill="#1A1446" fill-rule="nonzero" transform="translate(20 20)" xlink:href="#a"/>
    </g>
</svg>
