<svg xmlns="http://www.w3.org/2000/svg" width="60" height="60" viewBox="0 0 60 60">
    <g fill="none" fill-rule="evenodd">
        <circle cx="30" cy="30" r="30" fill="#99E5EA"/>
        <path fill="#1A1446" fill-rule="nonzero" d="M33.983 24.11c-.49.217-1.197.326-1.306.817-.055.328.054.491.109.71l.053.218.11.218c.109.382.49.873.162 1.418-.272.382-1.25.6-1.686.764l-.816.327c-.272.109-.598.327-.87.273-.653-.11-.762-1.091-.817-1.255 0 0-.054-.164-.054-.218v-.273c0-1.036.598-1.8 1.088-2.4a11.576 11.576 0 0 1 4.462-3.327c1.142-.491 2.502-.764 4.026-.764 1.469 0 3.537.273 4.19 1.31 0 0 .109.163.109.218l.054.218c.109.382.272.654.272 1.09v.055c-.108.546-.653.6-1.088.764-.545.163-1.034.382-1.578.6-.272.109-.599.273-.871.218-.544-.11-.544-.764-.707-1.255 0 0-.054-.163-.054-.218 0-.054-.055-.218-.055-.218-.054-.273-.163-.709-.653-.764-.217 0-.435.11-.707.219-1.089.381-2.23.818-3.373 1.254zm2.448 10.8v1.58h5.985v1.965H28.433V36.49h5.985v-1.582h2.013zm10.828-19.8c.925 0 1.687.763 1.687 1.69v15.382c0 .927-.762 1.69-1.687 1.69H25.004c.544-.545 1.034-1.2 1.36-1.963h20.568V17.073h-23.07v6.436c-.599-.382-1.252-.709-1.96-.873V16.8c0-.927.763-1.69 1.688-1.69h23.669zM20.162 34.581c-2.993 0-5.496-2.454-5.496-5.51 0-3 2.449-5.508 5.496-5.508 2.992 0 5.495 2.454 5.495 5.509a5.487 5.487 0 0 1-5.495 5.51zm0-9.055c-1.905 0-3.537 1.582-3.537 3.546a3.534 3.534 0 0 0 3.537 3.545 3.534 3.534 0 0 0 3.537-3.545 3.534 3.534 0 0 0-3.537-3.546zm.109 10.91c4.407 0 8.053 3.654 8.053 8.072h-1.96a6.091 6.091 0 0 0-6.093-6.109 6.091 6.091 0 0 0-6.094 6.109h-1.96c0-4.418 3.592-8.073 8.054-8.073z"/>
    </g>
</svg>
