<svg xmlns="http://www.w3.org/2000/svg" width="60" height="60" viewBox="0 0 60 60">
    <g fill="none" fill-rule="evenodd">
        <circle cx="30" cy="30" r="30" fill="#99E5EA"/>
        <path fill="#1A1446" fill-rule="nonzero" d="M43.52 20.34c1.551 3.753 1.24 8.13-.88 11.622-3 5.003-9.052 7.4-14.586 5.837l-5.948 9.588c-.673.99-1.707 1.564-2.897 1.564h-.31c-1.397-.105-2.742-.99-3.31-2.189-.414-.938-.31-2.032.31-2.918l5.38-8.13 1.447 1.25-5.275 7.922c-.26.365-.31.677-.156 1.042.259.573 1.035 1.042 1.759 1.095.466.052 1.086-.053 1.5-.678l6.362-10.266a.855.855 0 0 1 1.086-.417c4.862 1.72 10.397-.313 13.035-4.794a11.094 11.094 0 0 0 .724-9.954c-1.345-3.283-4.138-5.68-7.655-6.566a10.966 10.966 0 0 0-2.587-.313 10.67 10.67 0 0 0-7.396 2.97c-2.328 2.241-3.569 5.16-3.569 8.287.052 3.126 1.345 6.045 3.569 8.13.362.364.414.885.155 1.25l-.517.782-1.914-1.72a13.01 13.01 0 0 1-3.103-8.39c-.052-3.596 1.448-7.036 4.138-9.641 3.051-2.918 7.551-4.117 11.69-3.075 4.086 1.042 7.396 3.857 8.948 7.713zm-7.966.21c.052 2.032-1.655 3.752-3.724 3.752s-3.724-1.668-3.724-3.753c0-2.084 1.655-3.752 3.724-3.752 2.07 0 3.724 1.668 3.724 3.752zm-5.741-.053c0 1.147.93 2.033 2.017 2.033 1.138 0 2.017-.938 2.017-2.033.052-1.094-.879-2.032-2.017-2.032s-2.017.938-2.017 2.032zm-4.759 11.36c0-3.595 2.897-6.565 6.517-6.565 3.621 0 6.518 2.97 6.518 6.566h-1.707c0-2.658-2.173-4.847-4.81-4.847-2.639 0-4.811 2.189-4.811 4.847h-1.707z"/>
    </g>
</svg>
