<svg xmlns="http://www.w3.org/2000/svg" width="50" height="50" viewBox="0 0 50 50">
    <g fill="none" fill-rule="evenodd">
        <circle cx="25" cy="25" r="25" fill="#99E5EA"/>
        <path fill="#1A1446" fill-rule="nonzero" d="M40.956 26.676c0 1.089 0 2.308-.222 3.179-.93 5.313-4.03 6.445-6.333 7.142-.133 1.045-1.062 1.785-2.214 1.785-1.195 0-2.214-.958-2.214-2.177 0-1.176.974-2.047 2.214-2.047 1.019 0 1.683.697 2.081 1.263 2.17-.566 4.296-2.657 4.296-4.355v-9.624c2.347 0 2.392 2.744 2.392 4.834zm-4.385 5.487h-3.808c-.886 0-1.55-.697-1.55-1.524v-6.794c0-.87.708-1.524 1.55-1.524h1.683v1.568h-1.639v6.706h2.923v-9.32c.044-4.528-5.093-7.533-9.876-7.533-4.915 0-10.363 3.222-10.363 7.577v9.32h2.923v-6.75h-1.638V22.32h1.683c.885 0 1.55.697 1.55 1.524v6.794c0 .87-.709 1.524-1.55 1.524H14.65a.787.787 0 0 1-.797-.784V21.276c0-5.4 6.333-9.145 12.001-9.145 2.79 0 5.625.87 7.795 2.438 2.391 1.742 3.72 4.094 3.72 6.707v10.103a.787.787 0 0 1-.798.784zM12.524 21.886v9.624c-2.391 0-2.391-2.7-2.391-4.79 0-2.134 0-4.834 2.391-4.834z"/>
    </g>
</svg>
