<svg xmlns="http://www.w3.org/2000/svg" width="60" height="60" viewBox="0 0 60 60">
    <g fill="none" fill-rule="evenodd">
        <circle cx="30" cy="30" r="30" fill="#99E5EA"/>
        <path fill="#1A1446" fill-rule="nonzero" d="M41.346 13.59c.887.002 1.61.733 1.61 1.629v30.659c0 .898-.724 1.63-1.614 1.63H19.218c-.89 0-1.614-.732-1.614-1.63V13.413h1.76V45.73h21.832V15.368l-19.955-.041.004-1.778 20.101.041zM22.133 30.94v-1.367h16.814v1.367H22.133zm0 5.469V35.04h10.312v1.368H22.133zm0-10.938v-1.367h16.814v1.367H22.133zm0-5.469v-1.367h16.814v1.367H22.133z"/>
    </g>
</svg>
