<svg xmlns="http://www.w3.org/2000/svg" xmlns:xlink="http://www.w3.org/1999/xlink" width="20" height="20" viewBox="0 0 20 20">
    <defs>
        <path id="a" d="M10 .072c5.473 0 9.927 4.454 9.927 9.928 0 5.473-4.454 9.928-9.926 9.928C4.527 19.928.073 15.473.073 10c0-5.473 4.454-9.927 9.928-9.927zm0 18.23c4.578 0 8.3-3.724 8.3-8.303 0-4.577-3.722-8.3-8.3-8.3-4.577 0-8.302 3.723-8.302 8.3 0 4.58 3.725 8.303 8.303 8.303zm-2-5.354l6.988-7.017 1.152 1.146-8.12 8.154-.044-.045-.004.004-4.103-4 1.135-1.165L8 12.948z"/>
    </defs>
    <use fill="#008040" fill-rule="nonzero" xlink:href="#a"/>
</svg>
