<svg xmlns="http://www.w3.org/2000/svg" width="16" height="16" viewBox="0 0 16 16">
    <path fill="#1A1446" fill-rule="nonzero" d="M5.783 6.402c-.648.58-1.078.931-1.29 1.052-.194-.195-.362-.364-.491-.491-.44-.434-.141-.665.076-.863.217-.198.478-.402.74-.665 1.276-1.285 1.35-1.578.333-2.727-1.499-1.692-2.39-2.067-3.383-1.39-1.081.739-1.014 3.028.159 4.68.052.074.105.142.204.264.936 1.401 2.409 3.051 3.998 4.442 3.283 2.874 6.641 4.663 7.537 4.232l.103-.04c.243-.07.47-.22.694-.469.921-1.031.682-1.996-.909-3.178-.592-.496-.96-.57-1.43-.4-.165.06-.348.15-.592.29-.12.069-.622.37-.754.447l-.135.077a1.66 1.66 0 0 0-.155.1c-.05.035-.303.348-.794.003-.491-.345-2.574-1.876-3.546-2.727-.297-.26-.605-.55-.899-.834l.959-.824c.273.263.56.527.865.798.822.727 1.717 1.422 2.963 2.323.149-.089.583-.353.703-.422.294-.171.532-.29.774-.379.91-.334 1.761-.158 2.643.59 2.006 1.506 2.417 3.18 1.029 4.75a2.7 2.7 0 0 1-1.207.813c-1.6.702-5.094-1.193-8.641-4.334-1.608-1.423-3.096-3.11-4.01-4.504a3.751 3.751 0 0 1-.224-.289C-.35 4.657-.436 1.734 1.256.567 2.92-.58 4.41.053 6.223 2.123c1.463 1.672 1.236 2.574-.369 4.207l-.071.073z"/>
</svg>
