<svg xmlns="http://www.w3.org/2000/svg" width="25" height="30" viewBox="0 0 25 30">
    <path fill="#343741" fill-rule="nonzero" d="M17.568 25.416v2.274c0 .753-.59 1.364-1.318 1.364H1.318C.59 29.054 0 28.444 0 27.69V6.77c0-.754.59-1.365 1.318-1.365H5.27v16.827c0 1.756 1.38 3.184 3.075 3.184h9.223zm.405-19.504V0H8.75c-.728 0-1.318.61-1.318 1.364v20.92c0 .754.59 1.365 1.318 1.365h14.932c.728 0 1.318-.611 1.318-1.365V7.277h-5.71c-.724 0-1.317-.614-1.317-1.365zm6.631-1.803L20.891.396A1.351 1.351 0 0 0 19.936 0h-.341v5.405H25v-.34c0-.36-.142-.703-.396-.956z"/>
</svg>
