<svg xmlns="http://www.w3.org/2000/svg" width="60" height="60" viewBox="0 0 60 60">
    <g fill="none" fill-rule="evenodd">
        <circle cx="30" cy="30" r="30" fill="#99E5EA"/>
        <path fill="#1A1446" fill-rule="nonzero" d="M25.022 19.28v-1.633h9.867v1.632h-9.867zM44.09 45H15.911c-.933 0-1.689-.706-1.689-1.588V19.235c0-.882.756-1.588 1.69-1.588h4.355v1.632H15.91l-.044 24.133 28.222-.044.044-24.133-4.355.044v-1.632h4.311c.933 0 1.689.706 1.689 1.588v24.22c0 .84-.756 1.545-1.689 1.545zM21.911 19.28V15h1.645v4.28H21.91zm14.578 0v-4.104h1.644v4.103H36.49zm-11.467 7.808v-3.264h3.511v3.264h-3.51zm-6.266 0v-3.264h3.51v3.264h-3.51zm12.533 0v-3.264h3.51v3.264h-3.51zm6.267 0v-3.264h3.51v3.264h-3.51zM25.022 32.78v-3.264h3.511v3.264h-3.51zm-6.266 0v-3.264h3.51v3.264h-3.51zm12.533 0v-3.264h3.51v3.264h-3.51zm6.267 0v-3.264h3.51v3.264h-3.51zm-12.534 5.868v-3.265h3.511v3.265h-3.51zm-6.266 0v-3.265h3.51v3.265h-3.51z"/>
    </g>
</svg>
