<svg xmlns="http://www.w3.org/2000/svg" width="45" height="45" viewBox="0 0 45 45">
    <g fill="none" fill-rule="evenodd">
        <circle cx="22.5" cy="22.5" r="22.5" fill="#99E5EA"/>
        <path fill="#1A1446" fill-rule="nonzero" d="M27.708 21.697l-4.258 5.486v.034l-1.039 1.337-4.015-3.017 1.039-1.337L22.1 26.19l4.258-5.52 1.35 1.028zm2.527-6.857c.934 0 1.73.754 1.696 1.68v16.457c0 .96-.762 1.714-1.731 1.714H16.908v-1.405h13.327a.309.309 0 0 0 .31-.31V16.52a.308.308 0 0 0-.31-.309H15.73a.309.309 0 0 0-.312.31V34.76H14V16.554c0-.96.762-1.714 1.73-1.714h1.386v-.274c0-.412.346-.755.761-.755h2.873c-.034-.137-.034-.24-.034-.377a2.235 2.235 0 0 1 2.25-2.228c1.246 0 2.25.994 2.25 2.228 0 .137 0 .24-.035.377h2.873c.415 0 .761.343.761.755v.274h1.42zm-6.231-1.029c.035-.137.069-.24.069-.377 0-.617-.484-1.097-1.107-1.097a1.088 1.088 0 0 0-1.039 1.474c.173.412.554.72 1.039.72.484 0 .865-.308 1.038-.72z"/>
    </g>
</svg>
