<svg xmlns="http://www.w3.org/2000/svg" width="60" height="60" viewBox="0 0 60 60">
    <g fill="none" fill-rule="evenodd">
        <circle cx="30" cy="30" r="30" fill="#99E5EA"/>
        <path fill="#1A1446" fill-rule="nonzero" d="M30.61 26.01c-1.378 0-2.536 1.15-2.536 2.518 0 1.37 1.158 2.52 2.536 2.52 1.379 0 2.536-1.15 2.536-2.52a2.52 2.52 0 0 0-2.536-2.519m0 7.01c-2.48 0-4.52-2.026-4.52-4.49 0-2.465 2.04-4.491 4.52-4.491 2.481 0 4.52 2.026 4.52 4.49.056 2.465-1.984 4.49-4.52 4.49zm-13.672-2.902c-2.977 0-5.402-2.41-5.402-5.367s2.425-5.367 5.402-5.367c2.977 0 5.403 2.41 5.403 5.367s-2.426 5.367-5.403 5.367zm0-8.762c-1.874 0-3.418 1.533-3.418 3.395s1.544 3.395 3.418 3.395c1.875 0 3.418-1.533 3.418-3.395-.055-1.862-1.543-3.395-3.418-3.395zm26.903 8.762c-2.977 0-5.402-2.41-5.402-5.367s2.425-5.367 5.402-5.367c2.977 0 5.403 2.41 5.403 5.367s-2.426 5.367-5.403 5.367zm0-8.762c-1.874 0-3.418 1.533-3.418 3.395s1.544 3.395 3.418 3.395 3.418-1.533 3.418-3.395-1.544-3.395-3.418-3.395zm-.055 10.35a7.867 7.867 0 0 1 7.884 7.885h-1.986c0-3.23-2.646-5.859-5.898-5.859s-5.844 2.573-5.898 5.75c.22.657.33 1.424.33 2.19h-1.984c0-3.23-2.647-5.859-5.9-5.859-2.48 0-4.575 1.479-5.457 3.614v.11h-.055c-.22.657-.386 1.369-.386 2.136H22.45c0-.931.166-1.753.442-2.574-.276-3.012-2.812-5.422-5.9-5.422-3.252 0-5.898 2.628-5.898 5.86H9.11c0-4.327 3.527-7.831 7.882-7.831 3.308 0 6.175 2.026 7.332 4.873a7.842 7.842 0 0 1 6.01-2.792c2.48 0 4.686 1.15 6.119 2.902 1.158-2.902 3.969-4.983 7.332-4.983z"/>
    </g>
</svg>
