<svg width="60" height="60" viewBox="0 0 60 60" version="1.1" xmlns="http://www.w3.org/2000/svg" xmlns:xlink="http://www.w3.org/1999/xlink">
     <defs>
        <path d="M2.93693684,2.027948 L32.8264105,2.027948 L18.0000947,15.547948 L2.93693684,2.027948 Z M26.1948316,12.635948 L24.8685158,13.831948 L32.4943579,23.971948 L3.12641053,23.971948 L10.8474632,13.727948 L9.52114737,12.531948 L1.84746316,22.723948 L1.84746316,3.483948 L18.0000947,18.043948 L34.1522526,3.275948 L34.1522526,23.295948 L26.1948316,12.635948 Z M35.0053579,0.103948 L0.994831579,0.103948 C0.521147368,0.103948 0.1422,0.519948 0.1422,1.039948 L0.1422,24.907948 C0.1422,25.427948 0.521147368,25.843948 0.994831579,25.843948 L35.0527263,25.843948 C35.5264105,25.843948 35.9053579,25.427948 35.9053579,24.907948 L35.9053579,1.091948 C35.8579895,0.519948 35.4790421,0.103948 35.0053579,0.103948 L35.0053579,0.103948 Z" id="icon_email"></path>
    </defs>
    <g fill="none" fill-rule="evenodd">
        <circle cx="30" cy="30" r="30" fill="#99E5EA"/>
        <use fill="#1A1446" fill-rule="nonzero" transform="translate(12 15)" xlink:href="#icon_email"/>
    </g>
</svg>