<svg xmlns="http://www.w3.org/2000/svg" width="60" height="60" viewBox="0 0 60 60">
    <g fill="none" fill-rule="evenodd">
        <circle cx="30" cy="30" r="30" fill="#99E5EA"/>
        <g fill="#1A1446" fill-rule="nonzero">
            <path d="M26.127 23.945a4.864 4.864 0 0 0 1.006-2.96C27.133 18.235 24.831 16 22 16c-2.83 0-5.133 2.236-5.133 4.984 0 1.108.374 2.133 1.006 2.961-1.672.578-2.873 2.13-2.873 3.95v5.947c0 1.401.994 2.581 2.333 2.91v5.246c0 1.655 1.387 3.002 3.092 3.002h3.15c1.705 0 3.092-1.347 3.092-3.002v-5.246c1.339-.329 2.333-1.509 2.333-2.91v-5.947c0-1.82-1.2-3.372-2.873-3.95zM22 17.812c1.804 0 3.267 1.42 3.267 3.172 0 1.752-1.463 3.172-3.267 3.172-1.804 0-3.267-1.42-3.267-3.172 0-1.751 1.463-3.172 3.267-3.172zm5.133 16.03c0 .657-.548 1.19-1.225 1.19H24.8v6.966c0 .657-.548 1.19-1.225 1.19h-3.15c-.677 0-1.225-.533-1.225-1.19v-6.967h-1.108c-.677 0-1.225-.532-1.225-1.19v-5.946c0-1.314 1.097-2.38 2.45-2.38h.546a5.266 5.266 0 0 0 4.274 0h.546c1.353 0 2.45 1.066 2.45 2.38v5.947zM44.926 35.308l-2.182-9.304a2.742 2.742 0 0 0-.919-1.506 2.597 2.597 0 0 0-.249-.182 5.065 5.065 0 0 0 1.236-3.332C42.812 18.236 40.654 16 38 16c-2.654 0-4.813 2.236-4.813 4.984 0 1.28.469 2.449 1.237 3.332-.086.056-.17.116-.25.182-.46.381-.783.911-.918 1.506l-2.182 9.304c-.395 1.68.84 3.348 2.554 3.348h.708v3.342c0 1.655 1.3 3.002 2.898 3.002h1.532c1.598 0 2.898-1.347 2.898-3.002v-3.342h.708c1.714 0 2.949-1.667 2.554-3.348zM38 17.812c1.691 0 3.062 1.42 3.062 3.172 0 1.752-1.37 3.172-3.062 3.172-1.691 0-3.063-1.42-3.063-3.172 0-1.751 1.372-3.172 3.063-3.172zm4.375 19.032h-2.46v5.154c0 .657-.515 1.19-1.15 1.19h-1.53c-.635 0-1.15-.533-1.15-1.19v-5.154h-2.46c-.561 0-.978-.54-.853-1.107l2.187-9.315a.882.882 0 0 1 .853-.706h.676a4.656 4.656 0 0 0 3.024 0h.675c.409 0 .763.293.854.706l2.187 9.315c.125.566-.292 1.107-.853 1.107z"/>
        </g>
    </g>
</svg>
