<svg xmlns="http://www.w3.org/2000/svg" width="20" height="18" viewBox="0 0 20 18">
    <path fill="#FFD000" fill-rule="evenodd" d="M17.906 1.254C15.648-.632 12.16-.348 10 1.837 7.84-.348 4.352-.636 2.094 1.254-.844 3.711-.414 7.716 1.68 9.84l6.851 6.935c.39.396.914.617 1.469.617.559 0 1.078-.217 1.469-.613l6.851-6.935c2.09-2.123 2.528-6.128-.414-8.589zm-.922 7.277l-6.851 6.935c-.094.094-.172.094-.266 0L3.016 8.531C1.59 7.087 1.3 4.355 3.3 2.683c1.52-1.27 3.863-1.08 5.332.407L10 4.476l1.367-1.386c1.477-1.494 3.82-1.676 5.332-.411 1.996 1.672 1.7 4.42.285 5.852z"/>
</svg>
