<svg xmlns="http://www.w3.org/2000/svg" xmlns:xlink="http://www.w3.org/1999/xlink" width="20" height="20" viewBox="0 0 20 20">
    <defs>
        <path id="a" d="M10 1.75c-4.55 0-8.25 3.7-8.25 8.25s3.7 8.25 8.25 8.25 8.25-3.7 8.25-8.25-3.7-8.25-8.25-8.25m-.813 12.535H7.495v1.626h5.009v-1.626h-1.691V8.191A.812.812 0 0 0 10 7.378H7.677v1.626h1.51v5.281zm.813 5.59c-5.445 0-9.875-4.43-9.875-9.874C.125 4.554 4.555.123 10 .123s9.875 4.43 9.875 9.877c0 5.444-4.43 9.874-9.875 9.874zm.784-14.828a.987.987 0 1 0-1.975 0 .987.987 0 0 0 1.975 0z"/>
    </defs>
    <use fill="#1A1446" fill-rule="nonzero" xlink:href="#a"/>
</svg>
