<svg xmlns="http://www.w3.org/2000/svg" xmlns:xlink="http://www.w3.org/1999/xlink" width="36" height="36" viewBox="0 0 36 36">
    <defs>
        <path id="a" d="M8 1.4C4.36 1.4 1.4 4.36 1.4 8A6.606 6.606 0 0 0 8 14.6c3.64 0 6.6-2.96 6.6-6.6 0-3.64-2.96-6.6-6.6-6.6m-.65 10.028H5.995v1.301h4.007v-1.301H8.65V6.552a.65.65 0 0 0-.65-.65H6.14v1.301h1.21v4.225zM8 15.9C3.644 15.9.1 12.356.1 8 .1 3.643 3.644.1 8 .1s7.9 3.543 7.9 7.9c0 4.356-3.544 7.9-7.9 7.9zm.627-11.862a.79.79 0 1 0-1.58 0 .79.79 0 0 0 1.58 0z"/>
    </defs>
    <g fill="none" fill-rule="evenodd">
        <circle cx="18" cy="18" r="18" fill="#FFF" fill-rule="nonzero"/>
        <use fill="#1A1446" fill-rule="nonzero" transform="translate(10 10)" xlink:href="#a"/>
    </g>
</svg>
