<svg xmlns="http://www.w3.org/2000/svg" xmlns:xlink="http://www.w3.org/1999/xlink" width="45" height="45" viewBox="0 0 45 45">
    <defs>
        <path id="a" d="M13 2.276C7.085 2.276 2.275 7.086 2.275 13c0 5.913 4.81 10.723 10.725 10.723s10.725-4.81 10.725-10.723c0-5.915-4.81-10.725-10.725-10.725M11.943 18.57h-2.2v2.115h6.512V18.57h-2.198v-7.923c0-.584-.473-1.056-1.056-1.056H9.978v2.114h1.965v6.864zM13 25.838C5.921 25.838.162 20.08.162 13.001.162 5.92 5.922.16 13 .16c7.078 0 12.837 5.76 12.837 12.84 0 7.078-5.759 12.837-12.837 12.837zm1.02-19.277a1.284 1.284 0 1 0-2.568 0 1.284 1.284 0 0 0 2.568 0z"/>
    </defs>
    <g fill="none" fill-rule="evenodd">
        <circle cx="22.5" cy="22.5" r="22.5" fill="#99E5EA"/>
        <use fill="#1A1446" fill-rule="nonzero" transform="translate(10 10)" xlink:href="#a"/>
    </g>
</svg>
