<svg xmlns="http://www.w3.org/2000/svg" width="16" height="16" viewBox="0 0 16 16">
    <path fill="#1A1446" fill-rule="nonzero" d="M7.5 1.08c-1.193.38-2.288 2.082-2.758 4.42H7.5V1.08zM3.724 5.5c.3-1.619.882-3.01 1.643-3.988A7.023 7.023 0 0 0 1.46 5.5h2.264zM8.5 1.08V5.5h2.758c-.47-2.338-1.565-4.04-2.758-4.42zm3.776 4.42h2.264a7.023 7.023 0 0 0-3.907-3.988c.761.978 1.344 2.37 1.643 3.988zm.145 1a14.15 14.15 0 0 1 0 3h2.418a7.026 7.026 0 0 0 0-3H12.42zm-1.006 0H8.5v3h2.915a13.117 13.117 0 0 0 0-3zm.86 4c-.298 1.619-.88 3.01-1.642 3.988A7.023 7.023 0 0 0 14.54 10.5h-2.264zm-1.017 0H8.5v4.42c1.193-.38 2.288-2.082 2.758-4.42zM7.5 14.92V10.5H4.742c.47 2.338 1.565 4.04 2.758 4.42zM3.724 10.5H1.46a7.023 7.023 0 0 0 3.907 3.988c-.761-.978-1.344-2.37-1.643-3.988zm-.145-1a14.15 14.15 0 0 1 0-3H1.161a7.026 7.026 0 0 0 0 3H3.58zm1.006 0H7.5v-3H4.585a13.117 13.117 0 0 0 0 3zM7.5.015V0h1v.015a8 8 0 0 1 0 15.97V16h-1v-.015a8 8 0 0 1 0-15.97z"/>
</svg>
