<svg xmlns="http://www.w3.org/2000/svg" width="104" height="104" viewBox="0 0 104 104">
    <g fill="none" fill-rule="evenodd">
        <circle cx="52" cy="52" r="52" fill="#99E5EA"/>
        <path fill="#1A1446" fill-rule="nonzero" d="M80.39 48.095a2.168 2.168 0 0 1-.013.037c-4.738 12.26-13.08 18.582-24.731 18.582-14.135 0-20.965-7.374-23.146-18.124l-.083-.14c-2.02-3.408-4.21-4.72-6.804-4.35-1.195.17-2.305-.643-2.479-1.818-.173-1.175.655-2.266 1.85-2.436 4.199-.6 7.772 1.3 10.537 5.373h41.215a5.076 5.076 0 0 0-.018-.486c-.121-1.46-.792-3.41-1.897-5.276-2.857-4.825-7.63-7.923-13.768-7.923-1.209 0-2.188-.963-2.188-2.15 0-1.187.98-2.15 2.188-2.15 7.81 0 13.956 3.99 17.55 10.062 1.418 2.396 2.3 4.955 2.476 7.088.12 1.454-.09 2.774-.689 3.711zm-5.361 1.423H37.207c2.145 7.92 7.508 12.897 18.439 12.897 8.803 0 15.192-4.204 19.383-12.897zM40.979 81.61c-4.23 0-7.658-3.369-7.658-7.524 0-4.155 3.428-7.523 7.657-7.523s7.657 3.368 7.657 7.523c0 4.155-3.428 7.524-7.657 7.524zm0-4.3c1.812 0 3.28-1.443 3.28-3.224 0-1.78-1.468-3.224-3.28-3.224-1.813 0-3.282 1.444-3.282 3.224 0 1.781 1.469 3.225 3.281 3.225zm28.439 4.3c-4.229 0-7.657-3.369-7.657-7.524 0-4.155 3.428-7.523 7.657-7.523s7.657 3.368 7.657 7.523c0 4.155-3.428 7.524-7.657 7.524zm0-4.3c1.812 0 3.282-1.443 3.282-3.224 0-1.78-1.47-3.224-3.282-3.224s-3.281 1.444-3.281 3.224c0 1.781 1.469 3.225 3.281 3.225z"/>
    </g>
</svg>
