<svg xmlns="http://www.w3.org/2000/svg" width="60" height="60" viewBox="0 0 60 60">
    <g fill="none" fill-rule="evenodd">
        <circle cx="30" cy="30" r="30" fill="#99E5EA"/>
        <path fill="#1A1446" fill-rule="nonzero" d="M45.3 17.357c1.976 0 3.548 1.631 3.599 3.62V38.87c0 1.988-1.623 3.62-3.599 3.62H12.456v-1.836H45.25c.963 0 1.724-.765 1.724-1.733V20.977c0-.97-.76-1.734-1.724-1.734H16.004c-.963 0-1.723.765-1.723 1.734v17.995h-1.825V20.977c0-1.989 1.622-3.62 3.599-3.62H45.3zm-19.868 9.125c0 1.683-1.369 3.06-3.041 3.06-1.673 0-3.042-1.377-3.042-3.06 0-1.682 1.369-3.058 3.042-3.058 1.672 0 3.04 1.376 3.04 3.058zm-4.714 0c0 .918.76 1.683 1.673 1.683.912 0 1.672-.765 1.672-1.683 0-.917-.76-1.682-1.672-1.682-.913 0-1.673.765-1.673 1.682zm-3.801 9.585c0-2.958 2.483-5.302 5.372-5.302 2.89 0 5.271 2.396 5.271 5.302h-1.419a3.915 3.915 0 0 0-3.903-3.926c-2.179 0-3.902 1.785-3.902 3.926h-1.42zm14.546-9.738v-1.835h13.026v1.835H31.463zm0 4.64v-1.836h13.026v1.836H31.463zm0 4.639v-1.835h13.026v1.835H31.463z"/>
    </g>
</svg>
