<svg xmlns="http://www.w3.org/2000/svg" xmlns:xlink="http://www.w3.org/1999/xlink" width="45" height="45" viewBox="0 0 45 45">
    <defs>
        <path id="a" d="M12 23.85C5.466 23.85.15 18.536.15 12 .15 5.466 5.466.15 12 .15S23.85 5.464 23.85 12c0 6.535-5.316 11.85-11.85 11.85zM12 2.1c-5.46 0-9.9 4.44-9.9 9.9s4.44 9.9 9.9 9.9 9.9-4.44 9.9-9.9-4.44-9.9-9.9-9.9zm-1.176 16.498v-1.855h2.168v1.856h-2.168zm2.132-3.138h-2.097v-.834c0-.945.222-2.018 1.843-3.46 1.083-.973 1.172-1.609 1.172-2.28 0-.068-.021-1.694-1.767-1.694-1.163 0-1.808.606-2.03 1.903l-.085.498H7.947l.044-.637c.09-1.413 1.065-3.809 4.134-3.809 2.68 0 3.9 1.93 3.9 3.72 0 1.54-.515 2.546-1.968 3.842-.833.74-1.101 1.233-1.101 2.026v.725z"/>
    </defs>
    <g fill="none" fill-rule="evenodd">
        <circle cx="22.5" cy="22.5" r="22.5" fill="#99E5EA"/>
        <use fill="#1A1446" fill-rule="nonzero" transform="translate(11 11)" xlink:href="#a"/>
    </g>
</svg>
