<svg xmlns="http://www.w3.org/2000/svg" xmlns:xlink="http://www.w3.org/1999/xlink" width="16" height="16" viewBox="0 0 16 16">
    <defs>
        <path id="a" d="M7.9 1.301c-3.64 0-6.6 2.96-6.6 6.6A6.606 6.606 0 0 0 7.9 14.5c3.64 0 6.6-2.96 6.6-6.599 0-3.64-2.96-6.6-6.6-6.6m0 14.5c-4.356 0-7.9-3.544-7.9-7.9C0 3.544 3.544 0 7.9 0s7.9 3.544 7.9 7.901c0 4.356-3.544 7.9-7.9 7.9zm-.68-6.24h1.355L8.781 3H7l.22 6.56zm-.138 2.931h1.644v-1.589H7.082v1.589z"/>
    </defs>
    <use fill="#D32F2F" fill-rule="nonzero" xlink:href="#a"/>
</svg>
