<svg xmlns="http://www.w3.org/2000/svg" width="60" height="60" viewBox="0 0 60 60">
  <g fill="none" fill-rule="evenodd">
    <circle cx="30" cy="30" r="30" fill="#99E5EA"/>
    <g transform="scale(0.5) translate(30, 30)">
      <path fill="#1A1446" fill-rule="nonzero" d="M40.9002,31.0998 L35.2002,28.5998 L32.0002,35.5998 L32.6002,35.8998 C36.0992,37.5998 37.7002,41.7998 36.0992,45.2998 C34.9002,47.9008 32.4002,49.4008 29.7002,49.4008 C28.7002,49.4008 27.7002,49.1998 26.8002,48.7998 L26.2002,48.4998 L24.5002,52.2998 L21.6002,50.9998 L23.4002,47.1998 L18.3002,44.9008 L19.6002,41.9998 L24.7002,44.2998 L27.9002,37.2998 L27.6002,37.1998 C24.0002,35.4998 22.5002,31.2998 24.1002,27.7998 C25.8002,24.1998 30.0002,22.6998 33.5002,24.2998 L33.8002,24.3998 L35.0992,21.4998 L38.0002,22.7998 L36.7002,25.6998 L42.2002,28.1998 L40.9002,31.0998 Z M29.2002,34.2998 L32.4002,27.1998 L32.1002,27.0998 C30.2002,26.1998 27.9002,26.9998 27.0002,28.9998 C26.1002,30.9998 27.0002,33.2998 28.9002,34.1998 L29.2002,34.2998 Z M31.4002,38.7998 L30.8002,38.4998 L27.6002,45.4998 L28.2002,45.7998 C30.1002,46.6998 32.4002,45.7998 33.3002,43.9008 C34.2002,41.9998 33.3002,39.6998 31.4002,38.7998 Z M40.7998,10.7998 C41.9598,10.7998 42.9008,11.7398 42.9008,12.8998 C42.9008,14.0598 41.9598,14.9998 40.7998,14.9998 C39.6408,14.9998 38.6998,14.0598 38.6998,12.8998 C38.6998,11.7398 39.6408,10.7998 40.7998,10.7998 Z M39.0996,69.5996 L35.7996,68.2006 L54.2996,24.9996 L49.7006,10.3996 L36.0996,4.5996 L21.5996,10.9996 L4.5996,50.7006 L34.7006,63.5996 L33.2006,66.9996 L1.3996,53.2996 C0.4996,52.9006 -0.0004,51.7996 0.3996,50.9006 L18.2006,9.3996 C18.4996,8.7006 19.0996,8.0996 19.7996,7.7996 L34.7006,1.2006 C35.4996,0.7996 36.4006,0.7996 37.2006,1.2006 L51.2006,7.2006 C51.9996,7.5996 52.7006,8.2996 52.9996,9.0996 L57.7006,24.0996 C57.9006,24.7996 57.9006,25.5996 57.5996,26.2996 L39.0996,69.5996 Z" />
    </g>
  </g>
</svg>
