<svg xmlns="http://www.w3.org/2000/svg" width="50" height="50" viewBox="0 0 50 50">
    <g fill="none" fill-rule="evenodd">
        <circle cx="25" cy="25" r="25" fill="#99E5EA"/>
        <path fill="#1A1446" fill-rule="nonzero" d="M20.084 25.648c0 .708-.595 1.338-1.35 1.338h-5.717c-.755 0-1.35-.59-1.35-1.338V15.025c0-.747.595-1.338 1.35-1.338h5.717c.755 0 1.35.59 1.35 1.338v10.623zm-7.147 0c0 .04.04.079.08.079h5.717c.04 0 .08-.04.08-.079V15.025c0-.04-.04-.079-.08-.079h-5.717c-.04 0-.08.04-.08.08v10.622zM37 16.914c.754 0 1.39.63 1.35 1.377V32.1c0 .747-.635 1.377-1.39 1.377H16.471c-.754 0-1.39-.63-1.39-1.377v-4.25c0-.039.04-.039.04-.039h1.39c.04 0 .04.04.04.04v4.21c0 .039.04.039.04.039H36.92c.04 0 .04-.04.04-.04V18.41c0-.04-.04-.04-.04-.04H21.077c-.04 0-.04-.039-.04-.039v-1.377c0-.04.04-.04.04-.04h15.921zM27.39 35.838h5.718c.04 0 .04.04.04.04v1.377c0 .04-.04.04-.04.04H20.362c-.04 0-.04-.04-.04-.04v-1.377c0-.04.04-.04.04-.04h5.559v-1.416c0-.04.04-.04.04-.04h1.39c.039 0 .039.04.039.04v1.416zm.397-15.501c0 .275-.238.55-.555.55a.54.54 0 0 1-.557-.55.54.54 0 0 1 .557-.551.54.54 0 0 1 .555.55zm-11.911 3.737c.277 0 .516.236.516.512a.523.523 0 0 1-.516.511.523.523 0 0 1-.517-.511c0-.276.239-.512.517-.512z"/>
    </g>
</svg>
