<svg xmlns="http://www.w3.org/2000/svg" width="60" height="60" viewBox="0 0 60 60">
    <g fill="none" fill-rule="evenodd">
        <circle cx="30" cy="30" r="30" fill="#99E5EA"/>
        <path fill="#1A1446" fill-rule="nonzero" d="M23.977 30.88c0 .856-.706 1.617-1.6 1.617H15.6c-.894 0-1.6-.713-1.6-1.617V18.044c0-.903.706-1.616 1.6-1.616h6.777c.894 0 1.6.713 1.6 1.616V30.88zm-8.471 0c0 .048.047.095.094.095h6.777c.047 0 .094-.047.094-.095V18.044c0-.047-.047-.095-.094-.095H15.6c-.047 0-.094.048-.094.095V30.88zm28.517-10.554c.895 0 1.647.76 1.6 1.664v16.687c0 .903-.753 1.664-1.647 1.664H19.694c-.894 0-1.647-.76-1.647-1.664v-5.134c0-.048.047-.048.047-.048h1.647c.047 0 .047.048.047.048v5.087c0 .047.047.047.047.047H43.93c.047 0 .047-.047.047-.047V22.133c0-.048-.047-.048-.047-.048H25.153c-.047 0-.047-.047-.047-.047v-1.664c0-.048.047-.048.047-.048h18.87zM32.635 43.194h6.777c.047 0 .047.047.047.047v1.664c0 .048-.047.048-.047.048H24.306c-.047 0-.047-.048-.047-.048v-1.664c0-.047.047-.047.047-.047h6.588v-1.712c0-.047.047-.047.047-.047h1.647c.047 0 .047.047.047.047v1.712zm.47-18.732c0 .333-.282.666-.658.666a.647.647 0 0 1-.659-.666c0-.38.283-.665.66-.665.375 0 .658.285.658.665zM18.989 28.98c.33 0 .612.285.612.618a.626.626 0 0 1-.612.618.626.626 0 0 1-.611-.618c0-.333.282-.618.611-.618z"/>
    </g>
</svg>
